<?xml version="1.0" encoding="UTF-8" standalone="no"?>
<svg xmlns="http://www.w3.org/2000/svg" height="110mm" width="110mm" version="1.1" viewBox="0 0 110 110">
	<g transform="translate(9 -185.42)">
		<g transform="matrix(2.25 0 0 2.25 6.6993 194.75)">
			<path fill="#a97ac6" d="m17.454 20.295-17.321 10v-20z"/>
			<path transform="matrix(.26344 .45629 -.45629 .26344 13.599 -11.788)" d="m56.394 24.11-32.874 18.98v-37.96z" fill="#f59c66"/>
			<path transform="matrix(-.26344 .45629 -.45629 -.26344 43.312 .91496)" fill="#68d0bf" d="m56.394 24.11-32.874 18.98v-37.96z"/>
			<path transform="scale(-1)" d="m-17.454-20.295-17.321 10v-20z" fill="#df6eab"/>
			<path transform="matrix(-.26344 -.45629 .45629 -.26344 30.92 -21.788)" fill="#69b3e7" d="m-56.394-62.07-32.874 18.98v-37.96z"/>
			<path transform="matrix(.26344 -.45629 .45629 .26344 60.632 10.915)" d="m-56.394-62.07-32.874 18.98v-37.96z" fill="#f5e64f"/>
			<circle cx="-26.657" transform="rotate(225)" cy="-2.102" r="3.9515" fill="#b72218"/>
		</g>
	</g>
</svg>
