<?xml version="1.0" encoding="UTF-8" standalone="no"?>
<svg xmlns="http://www.w3.org/2000/svg" height="400mm" width="400mm" version="1.1" viewBox="0 0 400 400">
	<g transform="translate(0,103)">
		<g transform="matrix(2.5 0 0 2.5 49.559 -23.602)">
			<path fill="#a97ac6" d="m17.454 20.295-17.321 10v-20z"/>
			<path transform="matrix(.26344 .45629 -.45629 .26344 13.599 -11.788)" d="m56.394 24.11-32.874 18.98v-37.96z" fill="#f59c66"/>
			<path transform="matrix(-.26344 .45629 -.45629 -.26344 43.312 .91496)" fill="#68d0bf" d="m56.394 24.11-32.874 18.98v-37.96z"/>
			<path transform="scale(-1)" d="m-17.454-20.295-17.321 10v-20z" fill="#df6eab"/>
			<path transform="matrix(-.26344 -.45629 .45629 -.26344 30.92 -21.788)" fill="#69b3e7" d="m-56.394-62.07-32.874 18.98v-37.96z"/>
			<path transform="matrix(.26344 -.45629 .45629 .26344 60.632 10.915)" d="m-56.394-62.07-32.874 18.98v-37.96z" fill="#f5e64f"/>
			<circle cx="-26.657" transform="rotate(225)" cy="-2.102" r="3.9515" fill="#b72218"/>
		</g>
		<text style="font-variant-ligatures:normal;letter-spacing:0px;font-variant-numeric:normal;word-spacing:0px;font-variant-caps:normal;font-feature-settings:normal" font-weight="600" xml:space="preserve" transform="scale(1.0065 .99354)" line-height="1.25" font-size="42.79px" y="127.20089" x="47.25061" font-family="&apos;Segoe UI&apos;" fill="#54585a"><tspan style="font-variant-numeric:normal;font-variant-ligatures:normal;font-variant-caps:normal;font-feature-settings:normal" font-family="&apos;Segoe UI&apos;" font-weight="600" font-size="42.79px" y="127.20089" x="47.25061" stroke-width="1.0697" fill="#54585a">THE</tspan></text>
		<text style="font-variant-ligatures:normal;letter-spacing:0px;font-variant-numeric:normal;word-spacing:0px;font-variant-caps:normal;font-feature-settings:normal" xml:space="preserve" font-size="139.28px" line-height="1.25" y="247.77365" x="38.20586" font-family="&apos;Segoe UI&apos;" fill="#54585a"><tspan style="font-variant-numeric:normal;font-variant-ligatures:normal;font-variant-caps:normal;font-feature-settings:normal" font-family="&apos;Segoe UI&apos;" font-size="139.28px" y="247.77365" x="38.20586" stroke-width="3.4821" fill="#54585a">HUB</tspan></text>
	</g>
</svg>
