<?xml version="1.0" encoding="UTF-8" standalone="no"?>
<svg
   xmlns:dc="http://purl.org/dc/elements/1.1/"
   xmlns:cc="http://creativecommons.org/ns#"
   xmlns:rdf="http://www.w3.org/1999/02/22-rdf-syntax-ns#"
   xmlns:svg="http://www.w3.org/2000/svg"
   xmlns="http://www.w3.org/2000/svg"
   xmlns:sodipodi="http://sodipodi.sourceforge.net/DTD/sodipodi-0.dtd"
   xmlns:inkscape="http://www.inkscape.org/namespaces/inkscape"
   height="119.49mm"
   width="309.73mm"
   version="1.1"
   viewBox="0 0 309.72818 119.49088"
   id="svg32"
   sodipodi:docname="BrandWordmarkOnly.svg"
   inkscape:version="0.92.4 (33fec40, 2019-01-16)">
  <metadata
     id="metadata38">
    <rdf:RDF>
      <cc:Work
         rdf:about="">
        <dc:format>image/svg+xml</dc:format>
        <dc:type
           rdf:resource="http://purl.org/dc/dcmitype/StillImage" />
        <dc:title></dc:title>
      </cc:Work>
    </rdf:RDF>
  </metadata>
  <defs
     id="defs36" />
  <sodipodi:namedview
     pagecolor="#ffffff"
     bordercolor="#666666"
     borderopacity="1"
     objecttolerance="10"
     gridtolerance="10"
     guidetolerance="10"
     inkscape:pageopacity="0"
     inkscape:pageshadow="2"
     inkscape:window-width="1920"
     inkscape:window-height="1004"
     id="namedview34"
     showgrid="false"
     inkscape:zoom="0.30410894"
     inkscape:cx="180.85624"
     inkscape:cy="225.80787"
     inkscape:window-x="1920"
     inkscape:window-y="0"
     inkscape:window-maximized="1"
     inkscape:current-layer="g30" />
  <g
     id="g30">
    <g
       id="g28"
       transform="translate(-162.69645,-0.87003452)">
      <path
         d="m 196.4,11.9 h -10.6 v 31.2 h -6.1 V 11.9 H 169.2 V 6.8 h 27.2 z"
         id="path16"
         inkscape:connector-curvature="0"
         style="fill:#808080" />
      <path
         d="m 231.4,43.1 h -6.1 V 27.3 H 208 v 15.8 h -6.1 V 6.8 h 6.1 v 15.3 h 17.3 V 6.8 h 6.1 z"
         id="path18"
         inkscape:connector-curvature="0"
         style="fill:#808080" />
      <path
         d="M 261.2,43.1 H 240.5 V 6.8 h 19.8 v 5.1 h -13.7 v 10.3 h 12.7 v 5.1 H 246.6 V 38 h 14.5 z"
         id="path20"
         inkscape:connector-curvature="0"
         style="fill:#808080" />
      <path
         d="M 261.9,191.2 H 248 V 137 h -61.6 v 54.3 h -13.9 v -119 h 13.9 v 52.2 H 248 V 72.2 h 13.9 z"
         id="path22"
         inkscape:connector-curvature="0"
         style="fill:#808080" />
      <path
         d="m 380.3,143.1 c 0,33.4 -15.1,50.1 -45.2,50.1 -28.9,0 -43.3,-16.1 -43.3,-48.2 V 72.2 h 13.9 v 71.9 c 0,24.4 10.3,36.6 30.9,36.6 19.9,0 29.8,-11.8 29.8,-35.4 V 72.2 h 13.9 z"
         id="path24"
         inkscape:connector-curvature="0"
         style="fill:#808080" />
      <path
         class="st6"
         d="M 410.1,191.2 V 72.2 H 444 c 10.3,0 18.4,2.5 24.5,7.6 6,5 9,11.6 9,19.7 0,6.7 -1.8,12.6 -5.5,17.6 -3.7,5 -8.7,8.5 -15.1,10.6 v 0.3 c 8,0.9 14.4,4 19.3,9.1 4.8,5.1 7.2,11.7 7.2,19.9 0,10.2 -3.7,18.4 -11,24.7 -7.3,6.3 -16.5,9.5 -27.6,9.5 z M 424,84.8 v 38.4 h 14.3 c 7.6,0 13.6,-1.8 18,-5.5 4.4,-3.7 6.6,-8.9 6.6,-15.6 0,-11.6 -7.6,-17.3 -22.8,-17.3 z m 0,51 v 42.8 h 19 c 8.2,0 14.5,-1.9 19,-5.8 4.5,-3.9 6.8,-9.2 6.8,-15.9 0,-14.1 -9.6,-21.1 -28.7,-21.1 z"
         id="path26"
         inkscape:connector-curvature="0"
         style="fill:#808080" />
    </g>
  </g>
</svg>
