<?xml version="1.0" encoding="utf-8"?>
<!-- Generator: Adobe Illustrator 24.0.1, SVG Export Plug-In . SVG Version: 6.00 Build 0)  -->
<svg version="1.1" id="Layer_1" xmlns="http://www.w3.org/2000/svg" xmlns:xlink="http://www.w3.org/1999/xlink" x="0px" y="0px"
	 viewBox="0 0 878 338.7" style="enable-background:new 0 0 878 338.7;" xml:space="preserve">
<style type="text/css">
	.st0{fill:#BB95D1;}
	.st1{fill:#FC746A;}
	.st2{fill:#49C5B1;}
	.st3{fill:#DC4397;}
	.st4{fill:#69B3E7;}
	.st5{fill:#EDC414;}
	.st6{fill:#FFFFFF;}
</style>
<g>
	<path class="st0" d="M47.3,371.1c-7.7-17-12.2-33.2-15-52.2c-1.4-10.2-1.4-36.6,0-46.5c2.8-19.6,7.4-35.1,15-52.4
		c1.1-2.6,2-4.5,2.3-4.8c0,0,82.8,47.3,83.1,47.9c0,0-0.6,2.3-1.7,5.1c-3.4,10.2-4.3,15-4.3,27.2c0,12.2,0.9,18.1,4.3,27.8
		c0.9,2.8,2,5.4,2,6c0.3,0.9-2.8,2.6-68.6,40.8l-14.2,8.2L47.3,371.1z"/>
	<path class="st1" d="M103.8,219.7c-21.8-12.8-40.5-23.2-41.1-23.8l-1.4-0.6l2.8-4.3c8.5-12.2,23.8-28.3,35.1-37.4
		c28.6-22.7,62.4-36.3,98.9-39.7l4.3-0.3v47.9v47.9l-4.5,0.9c-6.5,1.1-17,4.8-23.8,8.2c-8.8,4.5-15.9,9.6-23.2,17.6
		c-3.7,3.7-6.8,6.8-6.8,6.8C143.7,242.6,125.6,232.4,103.8,219.7L103.8,219.7z"/>
	<path class="st2" d="M279.8,239.2c-11.3-13.9-30.3-24.9-48.8-28.6l-4.8-0.9v-48.2v-48.2l4.8,0.3c11.1,0.9,28.1,4.5,39.4,8.2
		c36.9,12.2,69.4,36,91.8,67.5c2.3,3.1,4,5.7,4,6s-81.9,47.9-82.5,47.9C283.5,243.5,281.8,241.5,279.8,239.2z"/>
	<path class="st3" d="M335.6,353.8L294,329.7l1.4-3.1c6.5-16.2,7.1-39.1,1.4-57c-0.9-2.8-1.4-5.4-1.4-5.7
		c0.6-0.6,81.4-47.1,81.9-47.3c1.7-0.3,9.6,20.1,13,33.7c6.5,24.9,7.7,51,3.4,76c-2.8,16.2-9.4,36.6-15.6,49l-1.1,2L335.6,353.8z"/>
	<path class="st4" d="M226.2,430v-47.9l1.7-0.3c20.7-4.3,33.7-11.1,47.6-24.7l7.4-7.1l41.4,23.8l41.4,23.8l-2.3,3.1
		c-30,42.8-79.9,72-131.8,76.5l-5.4,0.6L226.2,430z"/>
	<path class="st5" d="M196.4,477.9c-23.2-2.3-49.6-10.5-70.3-21.8c-19-10.5-37.4-25.5-51-41.4c-6.5-7.7-12.8-16.2-12.2-16.7
		c0.3-0.3,19-11.1,41.4-24.1l41.1-23.5l7.1,7.1c12.8,12.8,26.4,20.1,43.9,23.8l6,1.1v47.9v47.9h-2
		C199.6,478.2,197.6,477.9,196.4,477.9L196.4,477.9z"/>
</g>
<g id="Layer_3">
	<g>
		<g>
			<path class="st6" d="M478.6,18.6h80.7v13.6h-32.5v90.8h-15.7V32.1h-32.5V18.6z"/>
			<path class="st6" d="M577.1,18.6h15.7v45.3h52V18.6h15.8v104.3h-15.8V77.4h-52v45.5h-15.7V18.6z"/>
			<path class="st6" d="M683.6,18.6H749v13.6h-49.7v31.8h46.3v13.5h-46.3v31.9h50.3v13.6h-66V18.6z"/>
		</g>
		<g>
			<path class="st6" d="M487.2,204.7h48.4V344h159.8V204.7h48.5v320.5h-48.5V385.4H535.6v139.8h-48.4V204.7z"/>
			<path class="st6" d="M1068.9,204.7v212.1c0,72.3-56.5,113.8-127.4,113.8c-70.9,0-127.2-41.5-127.2-113.8V204.7h48.4v211.3
				c0,44.9,36,70.1,78.9,70.1c43.2,0,79-25.2,79-70.1V204.7H1068.9z"/>
			<path class="st6" d="M1139.3,204.7h117.4c68.2,0,101.1,36.8,101.1,84.2c0,40.1-24.6,60.1-54,67.6v3.1
				c31.8,1.7,66.5,29.7,66.5,79.3c0,49.1-33.7,86.2-108.1,86.2h-122.9V204.7z M1252.4,343.3c32.6,0,57.9-19.7,57.9-50.7
				c0-26.6-18.3-46.8-56.7-46.8h-66v97.5H1252.4z M1257.4,483.7c46.5,0,64.8-20.2,64.8-47.1c0-30.5-24.3-55.6-63.1-55.6h-71.5v102.7
				H1257.4z"/>
		</g>
	</g>
</g>
</svg>
